<?xml version="1.0" encoding="UTF-8" standalone="no"?>
<!-- Created with Inkscape (http://www.inkscape.org/) -->

<svg
   id="svg1018"
   sodipodi:docname="Chad and Matt Cover_1600.svg"
   viewBox="0 0 1599.9998 1600"
   sodipodi:version="0.32"
   version="1.1"
   inkscape:output_extension="org.inkscape.output.svg.inkscape"
   inkscape:version="1.3 (0e150ed6c4, 2023-07-21)"
   width="1600"
   height="1600"
   xml:space="preserve"
   xmlns:inkscape="http://www.inkscape.org/namespaces/inkscape"
   xmlns:sodipodi="http://sodipodi.sourceforge.net/DTD/sodipodi-0.dtd"
   xmlns:xlink="http://www.w3.org/1999/xlink"
   xmlns="http://www.w3.org/2000/svg"
   xmlns:svg="http://www.w3.org/2000/svg"
   xmlns:rdf="http://www.w3.org/1999/02/22-rdf-syntax-ns#"
   xmlns:cc="http://creativecommons.org/ns#"
   xmlns:dc="http://purl.org/dc/elements/1.1/"><defs
     id="defs1020"><linearGradient
       id="linearGradient1074"><stop
         id="stop1075"
         style="stop-color:#ffffff;stop-opacity:0"
         offset="0" /><stop
         id="stop1076"
         style="stop-color:#ffffff;stop-opacity:.4"
         offset="1" /></linearGradient><linearGradient
       id="linearGradient2423"
       y2="20.110001"
       xlink:href="#linearGradient1074"
       gradientUnits="userSpaceOnUse"
       x2="42.134998"
       gradientTransform="matrix(1.9528,0,0,0.51208,-9.5851,-10.117)"
       y1="27.905001"
       x1="41.993999"
       inkscape:collect="always" /><linearGradient
       id="linearGradient2426"
       y2="35.130001"
       xlink:href="#linearGradient1074"
       gradientUnits="userSpaceOnUse"
       x2="19.597"
       gradientTransform="matrix(0.71392,0,0,1.4007,-9.5851,-10.117)"
       y1="43.952999"
       x1="22.281"
       inkscape:collect="always" /><linearGradient
       id="linearGradient2429"
       y2="114.01"
       xlink:href="#linearGradient1074"
       gradientUnits="userSpaceOnUse"
       x2="45.155998"
       gradientTransform="matrix(1.5106,0,0,0.662,-9.5851,-10.117)"
       y1="103.02"
       x1="50.313999"
       inkscape:collect="always" /><linearGradient
       id="linearGradient2432"
       y2="39.219002"
       xlink:href="#linearGradient1074"
       gradientUnits="userSpaceOnUse"
       x2="66.264999"
       gradientTransform="matrix(1.1612,0,0,0.86115,-9.5851,-10.117)"
       y1="54.744999"
       x1="65.632004"
       inkscape:collect="always" /><filter
       id="filter3285"
       inkscape:collect="always"
       color-interpolation-filters="sRGB"
       x="-0.044975563"
       y="-0.054885072"
       width="1.0899511"
       height="1.1097701"><feGaussianBlur
         id="feGaussianBlur3287"
         stdDeviation="2.2330869"
         inkscape:collect="always" /></filter><linearGradient
       inkscape:collect="always"
       xlink:href="#linearGradient1074"
       id="linearGradient27"
       gradientUnits="userSpaceOnUse"
       gradientTransform="matrix(1.1612,0,0,0.86115,-9.5851,-10.117)"
       x1="65.632004"
       y1="54.744999"
       x2="66.264999"
       y2="39.219002" /><linearGradient
       inkscape:collect="always"
       xlink:href="#linearGradient1074"
       id="linearGradient28"
       gradientUnits="userSpaceOnUse"
       gradientTransform="matrix(1.5106,0,0,0.662,-9.5851,-10.117)"
       x1="50.313999"
       y1="103.02"
       x2="45.155998"
       y2="114.01" /><linearGradient
       inkscape:collect="always"
       xlink:href="#linearGradient1074"
       id="linearGradient29"
       gradientUnits="userSpaceOnUse"
       gradientTransform="matrix(0.71392,0,0,1.4007,-9.5851,-10.117)"
       x1="22.281"
       y1="43.952999"
       x2="19.597"
       y2="35.130001" /><linearGradient
       inkscape:collect="always"
       xlink:href="#linearGradient1074"
       id="linearGradient30"
       gradientUnits="userSpaceOnUse"
       gradientTransform="matrix(1.9528,0,0,0.51208,-9.5851,-10.117)"
       x1="41.993999"
       y1="27.905001"
       x2="42.134998"
       y2="20.110001" /></defs><sodipodi:namedview
     id="base"
     bordercolor="#666666"
     inkscape:pageshadow="2"
     inkscape:window-y="-8"
     pagecolor="#ffffff"
     inkscape:window-height="1057"
     inkscape:window-maximized="1"
     inkscape:zoom="0.51875"
     inkscape:window-x="-8"
     showgrid="false"
     borderopacity="1.0"
     inkscape:current-layer="svg1018"
     inkscape:cx="800"
     inkscape:cy="800"
     inkscape:window-width="1920"
     inkscape:pageopacity="0.0"
     inkscape:showpageshadow="2"
     inkscape:pagecheckerboard="0"
     inkscape:deskcolor="#d1d1d1"
     inkscape:export-bgcolor="#ffffffff"><inkscape:page
       x="0"
       y="0"
       width="1599.9998"
       height="1600"
       id="page1"
       margin="0"
       bleed="0"
       inkscape:export-filename="Chad and Matt Cover_1600.png"
       inkscape:export-xdpi="96"
       inkscape:export-ydpi="96" /></sodipodi:namedview><metadata
     id="metadata40"><rdf:RDF><cc:Work><dc:format>image/svg+xml</dc:format><dc:type
           rdf:resource="http://purl.org/dc/dcmitype/StillImage" /><cc:license
           rdf:resource="http://creativecommons.org/publicdomain/zero/1.0/" /><dc:publisher><cc:Agent
             rdf:about="http://openclipart.org/"><dc:title>Openclipart</dc:title></cc:Agent></dc:publisher></cc:Work><cc:License
         rdf:about="http://creativecommons.org/publicdomain/zero/1.0/"><cc:permits
           rdf:resource="http://creativecommons.org/ns#Reproduction" /><cc:permits
           rdf:resource="http://creativecommons.org/ns#Distribution" /><cc:permits
           rdf:resource="http://creativecommons.org/ns#DerivativeWorks" /></cc:License></rdf:RDF></metadata><g
     id="layer1"
     inkscape:label="Camada 1"
     inkscape:groupmode="layer"
     transform="translate(1583.12,-342.09)" /><g
     id="layer1-0"
     inkscape:label="Camada 1"
     inkscape:groupmode="layer"
     transform="translate(1708.6,-258.54)" /><g
     id="g2"
     transform="translate(-136.93581,244.55634)"><g
       id="g1"
       transform="translate(592.34043,233.43465)"><ellipse
         id="path1195"
         style="fill:#ffffff;fill-rule:evenodd;stroke:#000000;stroke-width:2.49998;stroke-linejoin:round"
         cx="75.128792"
         cy="74.76474"
         rx="73.878891"
         ry="73.515007" /><path
         id="path1226"
         inkscape:connector-curvature="0"
         sodipodi:nodetypes="ccc"
         style="fill:#000000;fill-opacity:0.15589;fill-rule:evenodd;stroke-width:2.2466;stroke-linejoin:round;filter:url(#filter3285)"
         d="m 144.92,48.633 c 26.87,105.58 -89.974,112.89 -115.13,81.013 -2.658,-55 110.13,-4.09 115.13,-81.013 z" /><path
         id="path1196"
         inkscape:connector-curvature="0"
         sodipodi:nodetypes="cccccc"
         style="fill-rule:evenodd;stroke-width:2.5;stroke-linejoin:round"
         d="M 40.432,36.068 68.67,19.268 94.711,35.685 82.641,66.412 50.435,65.359 Z" /><path
         id="path1197"
         inkscape:connector-curvature="0"
         sodipodi:nodetypes="cccccc"
         style="fill-rule:evenodd;stroke-width:2.5;stroke-linejoin:round"
         d="m 99.161,91.066 27.18,-0.39 2.87,24.27 -28.27,20.63 -18.87,-16.66 z" /><path
         id="path1198"
         inkscape:connector-curvature="0"
         sodipodi:nodetypes="cccccc"
         style="fill-rule:evenodd;stroke-width:2.5;stroke-linejoin:round"
         d="m 12.384,88.576 23.261,1.77 16.465,28.86 -12.492,14.69 -22.974,-18.81 z" /><path
         id="path1199"
         inkscape:connector-curvature="0"
         sodipodi:nodetypes="ccccc"
         style="fill-rule:evenodd;stroke-width:2.5;stroke-linejoin:round"
         d="m 5.4919,62.918 14.214,-25.415 0.862,-11.2 c -2.538,0 -18.741,26.109 -18.618,37.524 2.154,4.307 3.542,-0.909 3.542,-0.909 z" /><path
         id="path1200"
         inkscape:connector-curvature="0"
         sodipodi:nodetypes="cccccc"
         style="fill-rule:evenodd;stroke-width:2.5;stroke-linejoin:round"
         d="m 120.05,18.617 v 17.747 l 16.9,28.083 10.84,-1.005 c 0.51,-12.691 -13.2,-35.536 -17.26,-37.566 -3.56,-2.01 -10.48,-7.259 -10.48,-7.259 z" /><path
         id="path1201"
         inkscape:connector-curvature="0"
         sodipodi:nodetypes="cc"
         style="fill:none;stroke:#000000;stroke-width:2.5;stroke-linejoin:round"
         d="M 18.336,37.044 42.242,36.537" /><path
         id="path1202"
         inkscape:connector-curvature="0"
         sodipodi:nodetypes="cccc"
         style="fill-rule:evenodd;stroke-width:2.5;stroke-linejoin:round"
         d="m 60.32,2.5228 10.65,3.371 16.411,-3.371 c 0,0 -23,-3.046 -27.061,0 z" /><path
         id="path1203"
         inkscape:connector-curvature="0"
         sodipodi:nodetypes="cc"
         style="fill:none;stroke:#000000;stroke-width:2.5;stroke-linejoin:round"
         d="m 71.133,5.5688 -2.031,14.722" /><path
         id="path1204"
         inkscape:connector-curvature="0"
         sodipodi:nodetypes="cc"
         style="fill:none;stroke:#000000;stroke-width:2.5;stroke-linejoin:round"
         d="m 3.9219,64.104 9.891,26.292" /><path
         id="path1205"
         inkscape:connector-curvature="0"
         sodipodi:nodetypes="cc"
         style="fill:none;stroke:#000000;stroke-width:2.5;stroke-linejoin:round"
         d="M 35.551,92.116 51.887,63.551" /><path
         id="path1206"
         inkscape:connector-curvature="0"
         sodipodi:nodetypes="cc"
         style="fill:none;stroke:#000000;stroke-width:2.5;stroke-linejoin:round"
         d="m 92.961,36.537 28.52,-0.708" /><path
         id="path1207"
         inkscape:connector-curvature="0"
         sodipodi:nodetypes="cc"
         style="fill:none;stroke:#000000;stroke-width:2.5;stroke-linejoin:round"
         d="m 81.391,64.367 18.57,28.769" /><path
         id="path1208"
         inkscape:connector-curvature="0"
         sodipodi:nodetypes="cc"
         style="fill:none;stroke:#000000;stroke-width:2.5;stroke-linejoin:round"
         d="M 137.83,63.551 125.05,93.326" /><path
         id="path1209"
         inkscape:connector-curvature="0"
         sodipodi:nodetypes="cc"
         style="fill:none;stroke:#000000;stroke-width:2.5;stroke-linejoin:round"
         d="m 50.074,118.78 34.147,-0.2" /><path
         id="path1210"
         inkscape:connector-curvature="0"
         sodipodi:nodetypes="cc"
         style="fill:none;stroke:#000000;stroke-width:2.5;stroke-linejoin:round"
         d="m 39.105,131.38 16.997,14.35" /><path
         id="path1211"
         inkscape:connector-curvature="0"
         sodipodi:nodetypes="cc"
         style="fill:none;stroke:#000000;stroke-width:2.5;stroke-linejoin:round"
         d="M 102.06,132.64 87.38,147.21" /><path
         id="path1212"
         inkscape:connector-curvature="0"
         sodipodi:nodetypes="cc"
         style="fill:none;stroke:#000000;stroke-width:2.5;stroke-linejoin:round"
         d="m 127.24,114.37 7.86,1.87" /><path
         id="path1213"
         style="fill:none;stroke:#000000;stroke-width:2.5;stroke-linejoin:round"
         inkscape:connector-curvature="0"
         d="M 16.306,115.74" /><path
         id="path1214"
         inkscape:connector-curvature="0"
         sodipodi:nodetypes="cc"
         style="fill:none;stroke:#000000;stroke-width:2.5;stroke-linejoin:round"
         d="m 14.53,115.63 3.405,-1.1" /><path
         id="path1215"
         inkscape:connector-curvature="0"
         sodipodi:nodetypes="cc"
         style="fill:none;stroke:#000000;stroke-width:1pt"
         d="M 121.43,20.578 107.64,9.116" /><path
         id="path1217"
         inkscape:connector-curvature="0"
         sodipodi:nodetypes="cccc"
         style="fill:url(#linearGradient2432);fill-rule:evenodd;stroke-width:1pt"
         d="m 68.789,20.169 -16.567,9.713 c -13.041,18.396 33.369,21.773 31.049,0 -2.01,-2.345 -14.482,-9.713 -14.482,-9.713 z" /><path
         id="path1219"
         inkscape:connector-curvature="0"
         sodipodi:nodetypes="ccc"
         style="fill:url(#linearGradient2429);fill-rule:evenodd;stroke-width:1pt"
         d="m 51.372,64.38 c 9.713,0.669 21.101,1.004 23.11,0.669 C 84.531,60.36 49.363,43.614 51.372,64.38 Z" /><path
         id="path1221"
         inkscape:connector-curvature="0"
         sodipodi:nodetypes="ccc"
         style="fill:url(#linearGradient2426);fill-rule:evenodd;stroke-width:1pt"
         d="M 17.209,29.882 C 11.49,30.68 0.72,58.041 2.138,60.695 4.147,63.375 21.229,38.925 17.209,29.882 Z" /><path
         id="path1223"
         inkscape:connector-curvature="0"
         sodipodi:nodetypes="ccc"
         style="fill:url(#linearGradient2423);fill-rule:evenodd;stroke-width:1pt"
         d="m 63.43,1.4128 c 0,0 18.421,-2.01 19.091,0 -8.039,3.684 -11.388,7.033 -19.091,0 z" /></g><g
       id="g3611"
       transform="matrix(-4.0340677,0,0,4.0340677,2159.2627,-1269.0151)"><path
         id="path2830"
         sodipodi:nodetypes="ccccccccccccccccccccccccccccccccccccccccsccccc"
         style="fill:#000000;stroke:#000000;stroke-width:1px"
         d="m 347.86,493.17 c 7.8648,2.3774 14.831,-4.1076 22.637,-1.0952 2.5372,0.82092 6.5149,2.4455 6.6427,-1.7447 0.5004,-5.4488 -1.8668,-10.812 -1.8801,-16.319 -0.17313,-6.1683 -1.2838,-12.402 0.54659,-18.431 0.39452,-3.7437 -0.0991,-7.8293 0.42451,-11.359 2.2357,-2.9692 2.8434,4.146 5.0442,5.0702 7.727,4.7941 14.852,10.747 23.281,14.325 3.5357,8.0833 5.5566,16.671 7.7679,25.179 2.5743,3.4283 5.6621,6.5572 8.2782,9.8558 1.6384,4.9828 2.7037,10.24 6.1861,14.341 3.2571,9.1135 6.976,18.1 10.875,26.889 0.6926,4.756 2.0702,10.045 0.87595,14.59 -4.443,4.1291 -9.7814,6.9733 -14.966,10.039 -3.3394,2.7689 1.8084,4.5552 4.189,4.3814 6.5904,-1.9816 13.647,-2.8049 19.416,-6.8282 2.5306,-1.7013 6.5259,-2.0468 6.5714,-5.8039 1.3749,-3.0756 -2.8523,-5.1482 -4.0593,-7.7615 -1.4617,-9.4716 -2.3141,-19.053 -2.9024,-28.631 -3.2482,-7.008 -6.5154,-14.006 -10.357,-20.714 2.427,-18.052 5.108,-36.081 7.8571,-54.076 0.23159,-4.6222 -1.0246,-9.6082 2.0951,-13.524 1.3857,-3.7435 3.9634,-6.5217 7.2217,-8.7487 2.8099,-1.8107 0.57312,-5.8703 1.0687,-8.7123 0.11481,-8.9061 0.002,-17.795 -1.3957,-26.614 0.40609,-4.3577 -3.3036,-7.0996 -5.4184,-10.468 -3.2144,-1.5178 -6.4329,-3.0254 -9.8297,-4.0967 -1.0009,-3.0593 -0.78915,-6.0412 0.6015,-8.9387 2.1246,-4.9537 1.2878,-10.917 -1.6808,-15.274 -2.3806,-2.5361 -4.5337,-5.4601 -8.3176,-5.6022 -4.9954,-1.3339 -10.603,0.035 -14.646,3.2201 -2.7038,1.5661 -4.0941,4.9124 -2.6937,7.781 1.5014,2.8302 -0.75029,7.5305 2.4928,9.2804 -0.38873,1.9684 -3.4981,5.7484 0.63135,6.1872 2.228,2.3069 6.2134,2.0977 2.5237,5.2652 -1.6009,3.7486 3.6725,4.4562 6.0101,2.7276 2.452,2.0537 -2.6662,4.0786 -3.4453,6.271 -4.0215,4.2554 -4.5255,10.335 -5.2987,15.884 -0.57643,7.9161 -2.1972,15.654 -3.4537,23.468 -0.28511,3.0458 -0.89932,7.1717 -3.7208,8.5947 -13.717,-3.2038 -27.192,-11.168 -41.411,-7.9414 -3.2439,0.7362 -4.4123,6.5017 -5.2003,9.6318 -1.0036,5.596 -0.46105,11.551 0.29397,17.184 1.3949,8.741 4.4217,17.172 6.1082,25.799 1.1039,6.5864 -6.5112,7.7126 -10.361,11.334 -2.0368,2.1079 -11.274,1.9703 -8.6034,5.3861 z" /></g><g
       id="g3608"
       transform="matrix(4.1386022,0,0,4.1386022,-437.7337,-987.12021)"><path
         id="path2830-8"
         sodipodi:nodetypes="ccccccccccccccccccccccasssccccccccccc"
         style="fill:#000000;stroke:#000000;stroke-width:1px"
         d="m 373.93,479.86 c 9.1081,4.0624 18.138,3.4401 26.599,-1.6611 10.718,-2.2795 1.4594,-16.506 4.7021,-24.568 0.36391,-5.6068 1.768,-11.083 2.6278,-16.628 6.2583,5.8941 8.8583,14.79 8.5062,23.203 -0.82337,8.7626 -7.9768,15.623 -10.123,23.037 8.7648,1.9873 16.744,-5.8464 22.373,-12.021 7.2965,-2.9255 11.69,-10.111 3.815,-15.564 -7.5495,-12.254 -8.9836,-27.096 -14.413,-40.273 -6.7229,-8.6533 9.4167,-9.5074 10.002,-17.402 3.6528,-6.942 10.261,-11.177 16.247,-15.705 4.4866,-7.8445 4.2417,-17.266 6.2743,-25.868 1.8782,-7.5106 -3.0186,-21.435 2.8228,-25.273 8.5331,4.0609 9.3123,14.634 12.028,22.661 4.3545,10.496 0.48082,20.183 -1.7438,30.306 0.16474,9.531 9.7733,-9.796 5.5533,0.91046 -7.1069,9.675 12.525,-1.8502 11.075,-8.0159 -2.1042,-7.3724 -3.7254,-15.179 -3.6975,-23.106 0.23713,-9.4606 -2.2053,-18.206 -8.1697,-25.627 -5.1018,-8.6312 -15.625,-11.939 -21.17,-20.418 -6.1759,-7.9594 -12.725,-15.887 -21.165,-21.557 -0.30211,-7.3565 -2.4629,-14.926 -6.3302,-21.123 -5.9348,-8.4493 -17.21,-7.2398 -22.533,-1.9028 -6.9001,6.9179 -1.487,20.053 2.5418,29.202 0.75748,1.7201 5.5198,2.6003 5.856,4.1268 0.76446,3.471 -2.1439,6.7156 -6.1728,9.6887 -8.334,6.1499 -18.421,7.5192 -28.102,11.529 -8.1972,4.6689 -17.298,2.4635 -25.197,3.7059 -7.7901,0.89893 -7.2737,15.682 0.74174,8.649 9.0758,-1.0174 18.447,1.0264 27.397,-2.2377 10.629,-4.6546 23.264,-2.027 31.935,-9.2096 6.4286,5.4039 5.9513,18.475 2.6073,26.408 -3.4169,14.793 1.2114,32.454 -9.8377,44.706 -5.7947,7.3088 -14.193,14.924 -12.906,25.138 5.2092,8.8149 5.3584,19.28 6.6978,29.167 1.231,9.678 -1.0047,19.107 -8.5232,25.754 -4.6798,2.021 -9.1945,4.4308 -10.317,9.9714 z" /></g><g
       id="g27"
       transform="translate(948.32824,828.69299)"><ellipse
         id="ellipse3"
         style="fill:#ffffff;fill-rule:evenodd;stroke:#000000;stroke-width:2.49998;stroke-linejoin:round"
         cx="75.128792"
         cy="74.76474"
         rx="73.878891"
         ry="73.515007" /><path
         id="path3"
         inkscape:connector-curvature="0"
         sodipodi:nodetypes="ccc"
         style="fill:#000000;fill-opacity:0.15589;fill-rule:evenodd;stroke-width:2.2466;stroke-linejoin:round;filter:url(#filter3285)"
         d="m 144.92,48.633 c 26.87,105.58 -89.974,112.89 -115.13,81.013 -2.658,-55 110.13,-4.09 115.13,-81.013 z" /><path
         id="path4"
         inkscape:connector-curvature="0"
         sodipodi:nodetypes="cccccc"
         style="fill-rule:evenodd;stroke-width:2.5;stroke-linejoin:round"
         d="M 40.432,36.068 68.67,19.268 94.711,35.685 82.641,66.412 50.435,65.359 Z" /><path
         id="path5"
         inkscape:connector-curvature="0"
         sodipodi:nodetypes="cccccc"
         style="fill-rule:evenodd;stroke-width:2.5;stroke-linejoin:round"
         d="m 99.161,91.066 27.18,-0.39 2.87,24.27 -28.27,20.63 -18.87,-16.66 z" /><path
         id="path6"
         inkscape:connector-curvature="0"
         sodipodi:nodetypes="cccccc"
         style="fill-rule:evenodd;stroke-width:2.5;stroke-linejoin:round"
         d="m 12.384,88.576 23.261,1.77 16.465,28.86 -12.492,14.69 -22.974,-18.81 z" /><path
         id="path7"
         inkscape:connector-curvature="0"
         sodipodi:nodetypes="ccccc"
         style="fill-rule:evenodd;stroke-width:2.5;stroke-linejoin:round"
         d="m 5.4919,62.918 14.214,-25.415 0.862,-11.2 c -2.538,0 -18.741,26.109 -18.618,37.524 2.154,4.307 3.542,-0.909 3.542,-0.909 z" /><path
         id="path8"
         inkscape:connector-curvature="0"
         sodipodi:nodetypes="cccccc"
         style="fill-rule:evenodd;stroke-width:2.5;stroke-linejoin:round"
         d="m 120.05,18.617 v 17.747 l 16.9,28.083 10.84,-1.005 c 0.51,-12.691 -13.2,-35.536 -17.26,-37.566 -3.56,-2.01 -10.48,-7.259 -10.48,-7.259 z" /><path
         id="path9"
         inkscape:connector-curvature="0"
         sodipodi:nodetypes="cc"
         style="fill:none;stroke:#000000;stroke-width:2.5;stroke-linejoin:round"
         d="M 18.336,37.044 42.242,36.537" /><path
         id="path10"
         inkscape:connector-curvature="0"
         sodipodi:nodetypes="cccc"
         style="fill-rule:evenodd;stroke-width:2.5;stroke-linejoin:round"
         d="m 60.32,2.5228 10.65,3.371 16.411,-3.371 c 0,0 -23,-3.046 -27.061,0 z" /><path
         id="path11"
         inkscape:connector-curvature="0"
         sodipodi:nodetypes="cc"
         style="fill:none;stroke:#000000;stroke-width:2.5;stroke-linejoin:round"
         d="m 71.133,5.5688 -2.031,14.722" /><path
         id="path12"
         inkscape:connector-curvature="0"
         sodipodi:nodetypes="cc"
         style="fill:none;stroke:#000000;stroke-width:2.5;stroke-linejoin:round"
         d="m 3.9219,64.104 9.891,26.292" /><path
         id="path13"
         inkscape:connector-curvature="0"
         sodipodi:nodetypes="cc"
         style="fill:none;stroke:#000000;stroke-width:2.5;stroke-linejoin:round"
         d="M 35.551,92.116 51.887,63.551" /><path
         id="path14"
         inkscape:connector-curvature="0"
         sodipodi:nodetypes="cc"
         style="fill:none;stroke:#000000;stroke-width:2.5;stroke-linejoin:round"
         d="m 92.961,36.537 28.52,-0.708" /><path
         id="path15"
         inkscape:connector-curvature="0"
         sodipodi:nodetypes="cc"
         style="fill:none;stroke:#000000;stroke-width:2.5;stroke-linejoin:round"
         d="m 81.391,64.367 18.57,28.769" /><path
         id="path16"
         inkscape:connector-curvature="0"
         sodipodi:nodetypes="cc"
         style="fill:none;stroke:#000000;stroke-width:2.5;stroke-linejoin:round"
         d="M 137.83,63.551 125.05,93.326" /><path
         id="path17"
         inkscape:connector-curvature="0"
         sodipodi:nodetypes="cc"
         style="fill:none;stroke:#000000;stroke-width:2.5;stroke-linejoin:round"
         d="m 50.074,118.78 34.147,-0.2" /><path
         id="path18"
         inkscape:connector-curvature="0"
         sodipodi:nodetypes="cc"
         style="fill:none;stroke:#000000;stroke-width:2.5;stroke-linejoin:round"
         d="m 39.105,131.38 16.997,14.35" /><path
         id="path19"
         inkscape:connector-curvature="0"
         sodipodi:nodetypes="cc"
         style="fill:none;stroke:#000000;stroke-width:2.5;stroke-linejoin:round"
         d="M 102.06,132.64 87.38,147.21" /><path
         id="path20"
         inkscape:connector-curvature="0"
         sodipodi:nodetypes="cc"
         style="fill:none;stroke:#000000;stroke-width:2.5;stroke-linejoin:round"
         d="m 127.24,114.37 7.86,1.87" /><path
         id="path21"
         style="fill:none;stroke:#000000;stroke-width:2.5;stroke-linejoin:round"
         inkscape:connector-curvature="0"
         d="M 16.306,115.74" /><path
         id="path22"
         inkscape:connector-curvature="0"
         sodipodi:nodetypes="cc"
         style="fill:none;stroke:#000000;stroke-width:2.5;stroke-linejoin:round"
         d="m 14.53,115.63 3.405,-1.1" /><path
         id="path23"
         inkscape:connector-curvature="0"
         sodipodi:nodetypes="cc"
         style="fill:none;stroke:#000000;stroke-width:1pt"
         d="M 121.43,20.578 107.64,9.116" /><path
         id="path24"
         inkscape:connector-curvature="0"
         sodipodi:nodetypes="cccc"
         style="fill:url(#linearGradient27);fill-rule:evenodd;stroke-width:1pt"
         d="m 68.789,20.169 -16.567,9.713 c -13.041,18.396 33.369,21.773 31.049,0 -2.01,-2.345 -14.482,-9.713 -14.482,-9.713 z" /><path
         id="path25"
         inkscape:connector-curvature="0"
         sodipodi:nodetypes="ccc"
         style="fill:url(#linearGradient28);fill-rule:evenodd;stroke-width:1pt"
         d="m 51.372,64.38 c 9.713,0.669 21.101,1.004 23.11,0.669 C 84.531,60.36 49.363,43.614 51.372,64.38 Z" /><path
         id="path26"
         inkscape:connector-curvature="0"
         sodipodi:nodetypes="ccc"
         style="fill:url(#linearGradient29);fill-rule:evenodd;stroke-width:1pt"
         d="M 17.209,29.882 C 11.49,30.68 0.72,58.041 2.138,60.695 4.147,63.375 21.229,38.925 17.209,29.882 Z" /><path
         id="path27"
         inkscape:connector-curvature="0"
         sodipodi:nodetypes="ccc"
         style="fill:url(#linearGradient30);fill-rule:evenodd;stroke-width:1pt"
         d="m 63.43,1.4128 c 0,0 18.421,-2.01 19.091,0 -8.039,3.684 -11.388,7.033 -19.091,0 z" /></g></g><text
     xml:space="preserve"
     style="font-size:192px;line-height:1.2;font-family:Roboto;-inkscape-font-specification:Roboto;text-align:center;word-spacing:0px;text-anchor:middle;fill:#000000;stroke-width:3.77953"
     x="804.59375"
     y="231.77711"
     id="text2"><tspan
       sodipodi:role="line"
       id="tspan2"
       x="804.59375"
       y="231.77711">The Story of Chad</tspan></text><text
     xml:space="preserve"
     style="font-size:96px;line-height:1.2;font-family:Roboto;-inkscape-font-specification:Roboto;text-align:center;word-spacing:0px;text-anchor:middle;fill:#000000;stroke-width:3.77953"
     x="811.56628"
     y="1424.5784"
     id="text3"><tspan
       sodipodi:role="line"
       id="tspan3"
       x="811.56628"
       y="1424.5784">A fictional story about</tspan><tspan
       sodipodi:role="line"
       x="811.56628"
       y="1539.7783"
       id="tspan4">Chad and his friends</tspan></text></svg>
